<?xml version="1.0" standalone="no"?>
<!DOCTYPE svg PUBLIC "-//W3C//DTD SVG 1.1//EN" "http://www.w3.org/Graphics/SVG/1.1/DTD/svg11.dtd"><svg t="1656644757629"
  class="icon" viewBox="0 0 1170 1024" version="1.1" xmlns="http://www.w3.org/2000/svg" p-id="11651"
  xmlns:xlink="http://www.w3.org/1999/xlink" width="228.515625" height="200">
  <defs>
    <style type="text/css">
      @font-face {
        font-family: feedback-iconfont;
        src: url("//at.alicdn.com/t/font_1031158_u69w8yhxdu.woff2?t=1630033759944") format("woff2"), url("//at.alicdn.com/t/font_1031158_u69w8yhxdu.woff?t=1630033759944") format("woff"), url("//at.alicdn.com/t/font_1031158_u69w8yhxdu.ttf?t=1630033759944") format("truetype");
      }

    </style>
  </defs>
  <path
    d="M223.056457 512.193097l139.6736 242.015086-111.118628 193.793463-251.611429-435.808549 254.537143-440.846628 111.118628 193.799314z"
    fill="#8F8886" p-id="11652"></path>
  <path
    d="M767.648914 823.25504l-1.462857 2.568777h-165.302857l43.183543-75.24352 40.96-71.445943 98.7136-172.090514-98.655086-171.979337-40.96-71.445943-37.2736-65.00352h159.3344l97.543314 168.930743 83.499886 144.647314-80.515657 139.498057-99.064686 171.563886z m207.2576-649.508571L877.714286 5.459383h-579.057372l110.767543 193.155657 135.9872 237.099886 40.96 71.440091-40.96 71.39328-141.546057 246.871772-111.060114 193.565257h584.9088l1.111771-1.930972 99.006172-171.505371 192.453485-333.355886-195.3792-338.446628z"
    fill="#03b386" p-id="11653"></path>
</svg>
